<svg xmlns="http://www.w3.org/2000/svg" viewBox="0 0 897.86 897.86"><defs><style>.cls-1{fill:#e53c3c;}</style></defs><title>callprop</title><g id="Layer_2" data-name="Layer 2"><g id="Layer_1-2" data-name="Layer 1"><path class="cls-1" d="M448.93,44.9c222.76,0,404,181.24,404,404s-181.24,404-404,404-404-181.27-404-404,181.24-404,404-404m0-44.9C201,0,0,201,0,448.93S201,897.86,448.93,897.86s448.93-201,448.93-448.93S696.86,0,448.93,0ZM322.57,219.82c27.08-5.13,44.82,25.43,58.34,46.49,13.2,20.48,29.4,44.49,22.85,71.13-3.66,15-17.17,23.11-27.39,31.93-10.06,8.72-25.43,16.71-29.14,30.1-6.08,21.69,7.22,44.49,15.48,57.46a330.45,330.45,0,0,0,70.2,79.33c14,11.45,33.42,26.72,52.92,22.8,29-5.88,36.72-41.73,68.39-46.52,30.12-4.54,50.5,17.3,67.46,31.93,16.4,14.18,42.86,32.31,41.05,56.58-1,13.93-12.22,22.57-21.92,31-9.85,8.59-18.52,18.23-28.21,24.6C589,672,560,679.56,526.81,678.53c-32.55-1-58.54-12.07-82.06-24.63-46-24.55-82.42-59.08-116.67-97.58C294.35,518.46,263.2,473.66,246,424.12c-21.46-61.87-10.11-125.41,24.65-165,5.88-6.73,15.16-13.77,23.73-21s16.3-16,28.21-18.26Z"/></g></g></svg>