<svg height="512" viewBox="0 0 64 64" width="512" xmlns="http://www.w3.org/2000/svg"><g id="email-inbox-outbox-letter-laptop"><path d="m61 52h-3v-33a5 5 0 0 0 -5-5h-5v-11a1 1 0 0 0 -1-1h-30a1 1 0 0 0 -1 1v11h-5a5 5 0 0 0 -5 5v33h-3a1 1 0 0 0 -1 1v4a5 5 0 0 0 5 5h50a5 5 0 0 0 5-5v-4a1 1 0 0 0 -1-1zm-13-36h5a3.009 3.009 0 0 1 3 3v33h-2v-31a3.009 3.009 0 0 0 -3-3h-3zm-4.3-12-11.7 7.8-11.7-7.8zm-25.7.87 13.45 8.96a.975.975 0 0 0 1.1 0l13.45-8.96v17.13h-3v-7h-2v12a1 1 0 0 0 1 1h.87l-2.87 3.44-2.87-3.44h.87a1 1 0 0 0 1-1v-12h-2v7h-10v-1h2a1 1 0 0 0 .77-1.64l-5-6a1.032 1.032 0 0 0 -1.54 0l-5 6a1 1 0 0 0 -.23.64 1.023 1.023 0 0 0 .09.42 1 1 0 0 0 .91.58h2v1h-3zm-1 19.13h4v8h2v-12a1 1 0 0 0 -1-1h-.87l2.87-3.44 2.87 3.44h-.87a1 1 0 0 0 -1 1v12h2v-8h10v2h-2a1 1 0 0 0 -.77 1.64l5 6a1 1 0 0 0 1.54 0l5-6a1 1 0 0 0 -.77-1.64h-2v-2h4a1 1 0 0 0 1-1v-3h3a1 1 0 0 1 1 1v31h-4v-13a3.009 3.009 0 0 0 -3-3h-26a3.009 3.009 0 0 0 -3 3v13h-4v-31a1 1 0 0 1 1-1h3v3a1 1 0 0 0 1 1zm29 15v13h-28v-13a1 1 0 0 1 1-1h26a1 1 0 0 1 1 1zm-38-20a3.009 3.009 0 0 1 3-3h5v2h-3a3.009 3.009 0 0 0 -3 3v31h-2zm52 38a3.009 3.009 0 0 1 -3 3h-50a3.009 3.009 0 0 1 -3-3v-3h56z"/><path d="m20 40h2v2h-2z"/><path d="m24 40h20v2h-20z"/><path d="m20 44h20v2h-20z"/><path d="m42 44h2v2h-2z"/><path d="m20 48h24v2h-24z"/></g></svg>