<svg xmlns="http://www.w3.org/2000/svg" viewBox="0 0 313.99 338"><defs><style>.cls-1{fill:#919191;}</style></defs><title>get icon</title><g id="Layer_2" data-name="Layer 2"><g id="Capa_1" data-name="Capa 1"><path class="cls-1" d="M18.29,184.95a5,5,0,0,0,5-5V54.3A1.72,1.72,0,0,1,25,52.58H265a1.72,1.72,0,0,1,1.72,1.72V114a5,5,0,1,0,9.9,0V54.3A11.62,11.62,0,0,0,270,43.8V33a11.62,11.62,0,0,0-6.67-10.5V11.62A11.63,11.63,0,0,0,251.69,0H38.3A11.63,11.63,0,0,0,26.68,11.62V22.46A11.62,11.62,0,0,0,20,33V43.8A11.62,11.62,0,0,0,13.34,54.3V180a5,5,0,0,0,5,5ZM29.91,33a1.72,1.72,0,0,1,1.72-1.72H258.36A1.72,1.72,0,0,1,260.08,33v9.72H29.91Zm6.67-21.34A1.72,1.72,0,0,1,38.3,9.9h213.4a1.72,1.72,0,0,1,1.72,1.72v9.72H36.58Z"/><path class="cls-1" d="M204.38,166.68a63.64,63.64,0,1,0,18.64,45A63.22,63.22,0,0,0,204.38,166.68Zm-7,83a53.73,53.73,0,1,1,15.74-38A53.38,53.38,0,0,1,197.38,249.68Z"/><path class="cls-1" d="M312.54,329.55,290,307V246.36a5,5,0,0,0-5-5h-8.38V137.09a5,5,0,1,0-9.9,0V241.4H239a85,85,0,0,0-127.71-99.77V69a5,5,0,0,0-5-5H39.63a5,5,0,0,0-5,5v82.69a5,5,0,0,0,5,5h55A85.15,85.15,0,0,0,79.78,241.4H23.24V203.1a5,5,0,0,0-9.9,0v38.3H5a5,5,0,0,0-5,5l.74,86.69a5,5,0,0,0,5,4.91H35.11a5,5,0,1,0,0-9.9H10.6l-.65-76.79H84.21a85.11,85.11,0,0,0,115,35.46L213.41,301a5,5,0,0,0,7,0l2.16-2.16,10,10L230.39,311a5,5,0,0,0,0,7L240.5,328.1H58.21a5,5,0,1,0,0,9.9H252.47a5,5,0,0,0,3.49-8.45l-15.07-15.07,21.29-21.29,43.36,43.36a5,5,0,1,0,7-7ZM44.58,73.92h56.78v72.79H44.58ZM106.3,264.76a75.07,75.07,0,1,1,106.17,0A75.16,75.16,0,0,1,106.3,264.76Zm101.58,16.7a85.52,85.52,0,0,0,21.29-21.29l9,9L216.91,290.5Zm21.69,10.38,10-10,10,10-10,10Zm29.11-9.16-2.16,2.16-10-10,2.16-2.16a5,5,0,0,0,0-7l-14.23-14.23.09-.17h45.52v45.78l-14.4-14.4a5,5,0,0,0-7,0Z"/><path class="cls-1" d="M250.36,64H129a5,5,0,0,0,0,9.9H250.36a5,5,0,0,0,0-9.9Z"/><path class="cls-1" d="M255.31,90.31a5,5,0,0,0-5-5H129a5,5,0,0,0,0,9.9H250.36A5,5,0,0,0,255.31,90.31Z"/><path class="cls-1" d="M129,106.7a5,5,0,0,0,0,9.9h81.36a5,5,0,0,0,0-9.9Z"/></g></g></svg>