<svg xmlns="http://www.w3.org/2000/svg" viewBox="0 0 298 298"><defs><style>.cls-1{fill:#919191;}</style></defs><title>search</title><g id="Layer_2" data-name="Layer 2"><g id="Layer_1-2" data-name="Layer 1"><g id="email-inbox-outbox-letter-laptop"><path class="cls-1" d="M293,248.33h-14.9V84.43A24.83,24.83,0,0,0,253.3,59.6H228.47V5a5,5,0,0,0-5-5H74.5a5,5,0,0,0-5,5V59.6H44.7A24.83,24.83,0,0,0,19.87,84.43v163.9H5a5,5,0,0,0-5,5v19.87A24.83,24.83,0,0,0,24.83,298H273.17A24.83,24.83,0,0,0,298,273.17V253.3A5,5,0,0,0,293,248.33ZM228.47,69.53H253.3a14.94,14.94,0,0,1,14.9,14.9v163.9h-9.93v-154a14.94,14.94,0,0,0-14.9-14.9h-14.9ZM207.11,9.93,149,48.67,90.89,9.93ZM79.47,14.28l66.8,44.51a4.87,4.87,0,0,0,5.46,0l66.8-44.51V99.33h-14.9V64.57H193.7v59.6a5,5,0,0,0,5,5H203l-14.28,17.07-14.28-17.07h4.35a5,5,0,0,0,5-5V64.57h-9.93V99.33H124.17v-5h9.93a5,5,0,0,0,5-5,4.87,4.87,0,0,0-1.18-3.17l-24.83-29.8a5.18,5.18,0,0,0-7.26-.43,2.87,2.87,0,0,0-.43.43L80.52,86.23a5.15,5.15,0,0,0-.68,5.28,5,5,0,0,0,4.53,2.86H94.3v5H79.4V14.28Zm-5,95H94.37V149h9.93V89.4a5,5,0,0,0-5-5H95l14.28-17.07,14.28,17.07H119.2a5,5,0,0,0-5,5V149h9.93V109.27h49.67v9.93H163.9a5,5,0,0,0-5,5,4.87,4.87,0,0,0,1.18,3.17l24.83,29.8a5,5,0,0,0,7,.68,7.08,7.08,0,0,0,.68-.68l24.83-29.8a5,5,0,0,0-3.79-8.19H203.63V109.2H223.5a5,5,0,0,0,5-5V89.34h14.9a5,5,0,0,1,5,5v154H228.47v-64.5a14.94,14.94,0,0,0-14.9-14.9H84.43a14.94,14.94,0,0,0-14.9,14.9v64.57H49.67v-154a5,5,0,0,1,5-5h14.9v14.9A5,5,0,0,0,74.5,109.27Zm144,74.5v64.57H79.47V183.77a5,5,0,0,1,5-5H213.57A5,5,0,0,1,218.53,183.77ZM29.8,84.43a14.94,14.94,0,0,1,14.9-14.9H69.53v9.93H54.63a14.94,14.94,0,0,0-14.9,14.9v154H29.8ZM288.07,273.17a14.94,14.94,0,0,1-14.9,14.9H24.83a14.94,14.94,0,0,1-14.9-14.9v-14.9H288.07Z"/><path class="cls-1" d="M89.4,188.73h9.93v9.93H89.4Z"/><path class="cls-1" d="M109.27,188.73H208.6v9.93H109.27Z"/><path class="cls-1" d="M89.4,208.6h99.33v9.93H89.4Z"/><path class="cls-1" d="M198.67,208.6h9.93v9.93h-9.93Z"/><path class="cls-1" d="M89.4,228.47H208.6v9.93H89.4Z"/></g></g></g></svg>