<?xml version="1.0" standalone="no"?>
<!DOCTYPE svg PUBLIC "-//W3C//DTD SVG 20010904//EN"
 "http://www.w3.org/TR/2001/REC-SVG-20010904/DTD/svg10.dtd">
<svg version="1.0" xmlns="http://www.w3.org/2000/svg"
 width="260.000000pt" height="260.000000pt" viewBox="0 0 260.000000 260.000000"
 preserveAspectRatio="xMidYMid meet">

<g transform="translate(0.000000,260.000000) scale(0.100000,-0.100000)"
fill="white" stroke="none">
<path d="M1120 2465 c-412 -68 -760 -343 -911 -721 -120 -299 -116 -613 12
-919 98 -236 329 -474 574 -589 436 -207 954 -127 1305 202 233 218 361 494
376 807 28 580 -371 1091 -943 1210 -109 23 -308 28 -413 10z m390 -469 c40
-26 80 -95 80 -137 -1 -41 -36 -105 -75 -135 -30 -22 -50 -29 -99 -32 -73 -4
-115 15 -160 71 -62 78 -30 197 66 246 56 29 133 24 188 -13z m-144 -487 c110
-53 125 -160 56 -399 -74 -257 -87 -336 -58 -376 12 -15 27 -19 78 -19 35 0
77 4 95 8 l32 8 -12 -42 c-12 -41 -14 -42 -102 -75 -75 -27 -104 -33 -175 -33
-100 -1 -149 17 -197 72 -60 69 -57 139 18 402 59 207 69 306 35 331 -23 16
-112 19 -152 4 -34 -13 -38 -9 -30 35 6 31 14 39 54 57 140 60 270 70 358 27z"/>
</g>
</svg>
