<?xml version="1.0" standalone="no"?>
<!DOCTYPE svg PUBLIC "-//W3C//DTD SVG 20010904//EN"
 "http://www.w3.org/TR/2001/REC-SVG-20010904/DTD/svg10.dtd">
<svg version="1.0" xmlns="http://www.w3.org/2000/svg"
 width="1508.000000pt" height="1508.000000pt" viewBox="0 0 1508.000000 1508.000000"
 preserveAspectRatio="xMidYMid meet">

<g transform="translate(0.000000,1508.000000) scale(0.100000,-0.100000)"
fill="white" stroke="none">
<path d="M12853 15064 c-60 -22 -128 -86 -160 -152 l-28 -57 -3 -802 -3 -803
-852 -2 -852 -3 -55 -31 c-61 -34 -121 -105 -139 -164 -6 -20 -11 -66 -11
-101 0 -113 66 -211 175 -261 l50 -23 842 -3 842 -3 3 -842 3 -842 23 -50 c50
-109 148 -175 261 -175 35 0 81 5 101 11 59 18 130 78 164 139 l31 55 3 852 2
852 803 3 802 3 57 28 c69 34 131 101 152 164 36 106 8 229 -70 307 -27 28
-65 53 -99 65 -55 21 -72 21 -850 21 l-795 0 0 795 c0 775 0 796 -20 849 -24
63 -80 126 -142 157 -56 29 -175 35 -235 13z"/>
<path d="M7060 14744 c-1098 -62 -2019 -299 -2950 -760 -2277 -1127 -3817
-3342 -4074 -5864 -30 -293 -39 -520 -33 -875 9 -554 56 -959 173 -1485 70
-316 226 -835 284 -950 26 -50 87 -105 145 -131 186 -84 405 60 405 266 0 36
-18 104 -60 230 -180 535 -288 1045 -342 1620 -20 220 -17 983 5 1205 79 778
265 1485 569 2155 861 1898 2539 3303 4546 3804 1251 313 2609 258 3821 -154
175 -59 276 -42 370 61 87 95 103 213 46 331 -44 89 -94 120 -296 186 -588
190 -1117 295 -1749 347 -127 11 -742 21 -860 14z"/>
<path d="M5232 10815 c-158 -49 -244 -209 -198 -367 20 -69 86 -146 153 -179
l48 -24 725 -6 c682 -6 731 -7 820 -26 558 -121 991 -526 1134 -1063 l25 -90
-1334 0 c-1527 0 -1398 8 -1497 -91 -45 -45 -60 -68 -74 -114 -42 -148 25
-294 165 -359 46 -21 47 -21 1393 -24 l1346 -2 -23 -88 c-144 -538 -584 -947
-1142 -1064 -105 -21 -131 -22 -823 -28 -816 -6 -761 1 -852 -97 -84 -91 -101
-224 -43 -331 24 -45 949 -926 2841 -2709 174 -164 213 -195 262 -213 149 -57
325 22 377 170 8 23 15 73 15 109 0 132 78 50 -1272 1326 l-1217 1150 302 6
c307 7 430 19 597 58 267 62 545 192 767 357 183 137 413 391 532 589 111 183
209 437 253 652 l23 112 485 3 c472 3 486 4 531 24 108 50 173 151 173 269 1
127 -71 230 -191 275 -51 19 -78 20 -526 20 l-472 0 -23 112 c-76 372 -246
703 -511 997 l-63 71 771 0 c747 0 772 1 824 20 120 45 192 148 191 275 0 118
-65 219 -173 269 l-46 21 -2115 2 c-1745 1 -2122 -1 -2158 -12z"/>
<path d="M13782 10359 c-101 -50 -152 -129 -160 -244 -4 -67 -2 -76 62 -236
202 -511 339 -1031 415 -1579 72 -517 80 -1141 20 -1675 -254 -2291 -1652
-4291 -3725 -5328 -755 -377 -1511 -593 -2394 -684 -248 -25 -1028 -25 -1270
0 -891 93 -1650 313 -2410 698 -341 172 -808 457 -793 483 4 6 213 292 466
634 252 343 469 645 480 670 30 65 29 169 -2 234 -49 102 -151 169 -258 169
-32 0 -579 -68 -1217 -150 -845 -110 -1170 -156 -1200 -170 -90 -40 -159 -132
-172 -231 -4 -33 46 -341 196 -1205 110 -638 208 -1182 217 -1210 22 -66 100
-145 167 -168 107 -37 225 -14 300 56 32 30 453 593 662 885 1 2 56 -32 122
-76 921 -618 2003 -1025 3114 -1172 528 -70 1185 -79 1718 -24 1980 203 3774
1186 5027 2754 768 962 1292 2133 1497 3345 228 1351 86 2690 -425 3988 -45
114 -59 139 -103 183 -91 90 -219 111 -334 53z"/>
</g>
</svg>
