<?xml version="1.0" standalone="no"?>
<!DOCTYPE svg PUBLIC "-//W3C//DTD SVG 20010904//EN"
 "http://www.w3.org/TR/2001/REC-SVG-20010904/DTD/svg10.dtd">
<svg version="1.0" xmlns="http://www.w3.org/2000/svg"
 width="910.000000pt" height="910.000000pt" viewBox="0 0 910.000000 910.000000"
 preserveAspectRatio="xMidYMid meet">

<g transform="translate(0.000000,910.000000) scale(0.100000,-0.100000)"
fill="white" stroke="none">
<path d="M3552 8519 c-257 -44 -498 -225 -616 -464 -73 -146 -87 -216 -93
-457 l-6 -208 -762 0 c-731 0 -765 -1 -841 -20 -332 -85 -581 -363 -649 -722
-14 -74 -15 -337 -13 -2418 l3 -2335 22 -76 c93 -328 306 -557 603 -651 l75
-23 3275 0 3275 0 75 23 c160 50 302 146 410 275 74 88 162 260 193 377 l22
85 0 2360 c0 2221 -1 2364 -18 2429 -84 329 -296 564 -602 667 l-70 24 -786 3
-786 3 -6 207 c-6 241 -21 312 -93 457 -84 171 -216 302 -389 385 -186 91 -93
84 -1195 86 -536 1 -999 -2 -1028 -7z m1950 -575 c64 -21 122 -75 155 -142 27
-55 28 -63 31 -234 l4 -178 -1142 0 -1142 0 4 178 c3 171 4 179 31 234 16 32
47 73 69 92 78 67 29 64 1034 65 799 1 916 -1 956 -15z m2280 -1147 c67 -33
111 -80 147 -157 l26 -55 3 -732 3 -733 -3411 0 -3411 0 3 733 3 732 26 55
c47 101 120 163 209 178 24 4 1461 7 3194 7 l3151 0 57 -28z m-5509 -2334 c3
-49 4 -177 3 -285 l-1 -198 568 0 567 0 0 285 0 285 1140 0 1140 0 0 -285 0
-285 568 0 567 0 0 283 1 282 567 3 567 2 -2 -1302 -3 -1303 -23 -50 c-34 -73
-85 -130 -144 -159 l-52 -26 -3186 0 -3186 0 -52 26 c-59 29 -111 87 -144 160
l-23 49 -3 1303 -2 1302 564 0 563 0 6 -87z"/>
</g>
</svg>
