<svg xmlns="http://www.w3.org/2000/svg" viewBox="0 0 154.98 154.98"><defs><style>.cls-1{fill:#f7f5f5;}.cls-2{fill:#918e8e;}.cls-3{fill:#fff;}</style></defs><title>datacardicon</title><g id="Layer_2" data-name="Layer 2"><g id="Layer_1-2" data-name="Layer 1"><path class="cls-1" d="M77.49,153A75.49,75.49,0,1,1,153,77.49,75.57,75.57,0,0,1,77.49,153Z"/><path class="cls-2" d="M77.49,4A73.49,73.49,0,1,1,4,77.49,73.57,73.57,0,0,1,77.49,4m0-4A77.49,77.49,0,1,0,155,77.49,77.49,77.49,0,0,0,77.49,0Z"/><path class="cls-3" d="M84,42l2.69,1,1-2.69-2.69-1Zm9.69,3.75,2.69,1,1-2.69-2.69-1ZM85.3,77.6a2.4,2.4,0,0,0-2.91,3.51l-2.63,6.78-5,.37,6.5-16.79,1,2.54A1.44,1.44,0,0,0,85,72.95h0L82.6,67v0l0-.05v-.06l0-.08,0,0v0l-.05-.07,0,0h0l-.06-.06,0,0h0l-.06-.06,0,0h0l-.07-.05,0,0h0l-.07,0,0,0h0l-.07,0,0,0h-.16l-.07,0H81l-.09,0h0l-.09,0H80.7l-.05,0h0L74.87,69a1.44,1.44,0,1,0,1.26,2.6h0l2.45-1.2L70,92.6,66.55,89l2.63-6.78a2.4,2.4,0,1,0-2.69-1l-3,7.63a1.44,1.44,0,0,0,.3,1.51l5,5.3-3.44,8.87a2.4,2.4,0,1,0,2.69,1l5.52-14.26,7.27-.54a1.44,1.44,0,0,0,1.24-.92l3-7.63a2.4,2.4,0,0,0,.22-4.55Zm19.2-17.79a4.3,4.3,0,0,0-2.4-2.29l-.49-.19,6.29-16.24a4.33,4.33,0,0,0-2.47-5.6L85,27.57A4.33,4.33,0,0,0,79.38,30L73.09,46.27l-.23-.09a4.34,4.34,0,0,0-5.6,2.46l-19,48.82A20,20,0,0,0,85.51,112v0l19-48.88a4.3,4.3,0,0,0-.07-3.32ZM82.07,31.08a1.44,1.44,0,0,1,1.87-.82l20.45,7.92a1.44,1.44,0,0,1,.82,1.87L98.92,56.28l-23.14-9ZM82.83,111A17.12,17.12,0,1,1,50.92,98.54v0l19-48.82a1.45,1.45,0,0,1,1.87-.82l29.24,11.33a1.44,1.44,0,0,1,.82,1.87h0Z"/><path class="cls-2" d="M83.42,27.27a4.34,4.34,0,0,0-4,2.76L73.09,46.27l-.23-.09a4.33,4.33,0,0,0-5.6,2.46l-19,48.82A20,20,0,1,0,85.51,112v0l19-48.88a4.3,4.3,0,0,0-.07-3.32h0a4.3,4.3,0,0,0-2.4-2.29l-.49-.19,6.29-16.24a4.33,4.33,0,0,0-2.47-5.6L85,27.57a4.32,4.32,0,0,0-1.56-.29Zm15.5,29-23.14-9,6.29-16.24a1.44,1.44,0,0,1,1.87-.82l20.45,7.92a1.44,1.44,0,0,1,.82,1.87L98.92,56.28Zm-32,65.59a17.13,17.13,0,0,1-16-23.34v0l19-48.82a1.44,1.44,0,0,1,1.87-.82l29.24,11.33a1.44,1.44,0,0,1,.82,1.87h0L82.83,111a17.13,17.13,0,0,1-16,10.92ZM85.09,39.27,84,42l2.69,1,1-2.69-2.69-1ZM94.77,43l-1,2.69,2.69,1,1-2.69-2.69-1ZM81.29,66.08H81l-.09,0h0l-.09,0H80.7l-.05,0h0L74.87,69a1.44,1.44,0,1,0,1.26,2.6h0l2.45-1.2L70,92.6,66.55,89l2.63-6.78a2.4,2.4,0,1,0-2.69-1l-3,7.63a1.44,1.44,0,0,0,.3,1.51l5,5.3-3.44,8.87a2.4,2.4,0,1,0,2.69,1l5.52-14.26,7.27-.54a1.44,1.44,0,0,0,1.24-.92l3-7.63a2.4,2.4,0,0,0,.22-4.55h0a2.4,2.4,0,0,0-2.91,3.51l-2.63,6.78-5,.37,6.5-16.79,1,2.54A1.44,1.44,0,1,0,85,72.95h0L82.6,67v0l0-.05v-.06l0-.08,0,0v0l-.05-.07,0,0h0l-.06-.06,0,0h0l-.06-.06,0,0h0l-.07-.05,0,0h0l-.07,0,0,0h0l-.07,0,0,0h-.16l-.07,0h-.31Z"/></g></g></svg>