<svg xmlns="http://www.w3.org/2000/svg" viewBox="0 0 155.53 155.53"><defs><style>.cls-1{fill:#f7f5f5;}.cls-2{fill:#918e8e;}.cls-3{fill:#fff;}</style></defs><title>DTHicon_1</title><g id="Layer_2" data-name="Layer 2"><g id="Layer_1-2" data-name="Layer 1"><path class="cls-1" d="M77.77,153.53a75.77,75.77,0,1,1,75.77-75.77A75.85,75.85,0,0,1,77.77,153.53Z"/><path class="cls-2" d="M77.77,4A73.77,73.77,0,1,1,4,77.77,73.85,73.85,0,0,1,77.77,4m0-4a77.77,77.77,0,1,0,77.77,77.77A77.77,77.77,0,0,0,77.77,0Z"/><path class="cls-3" d="M89,41.14a1.38,1.38,0,0,0,0,2.77,22.65,22.65,0,0,1,22.65,22.65,1.38,1.38,0,1,0,2.77,0A25.42,25.42,0,0,0,89,41.14Zm33.28,11.64A36,36,0,0,0,89,30.54a1.38,1.38,0,1,0,0,2.77,33.26,33.26,0,0,1,33.26,33.26,1.38,1.38,0,1,0,2.77,0A35.85,35.85,0,0,0,122.25,52.78ZM54.06,110.7a1.38,1.38,0,1,0,1.38,1.38,1.38,1.38,0,0,0-1.38-1.38Zm28.46-36,4.06-3.82a4.61,4.61,0,1,0-1.94-2l-4.07,3.84L59.34,51.5A3.26,3.26,0,0,0,57,50.55a3.23,3.23,0,0,0-2.31,1.07,35.23,35.23,0,0,0-.24,46.61L49.91,106a11.9,11.9,0,0,0-5.46,4.14l-4.74,6.53h-1.6a6.88,6.88,0,0,0-6.19,3.82L30.68,123a1.38,1.38,0,0,0,1.24,2H76.2a1.38,1.38,0,0,0,1.24-2l-1.24-2.48A6.88,6.88,0,0,0,70,116.69h-1.6L64,110.6l2.08-3.6a35.26,35.26,0,0,0,38.33-5.64,3.23,3.23,0,0,0,.25-4.56l-.12-.13Zm4.92-9.2A1.84,1.84,0,1,1,90,68.09h0a1.84,1.84,0,1,1-2.61-2.61Zm-31,34.84a35.2,35.2,0,0,0,7.21,5.41l-1.53,2.65a11.92,11.92,0,0,0-8-3.11h-.53Zm11.31,19.14H70a4.13,4.13,0,0,1,3.71,2.29l.24.47H34.16l.24-.47a4.13,4.13,0,0,1,3.71-2.29h29.6ZM65,116.69H43.13l3.56-4.9a9.11,9.11,0,0,1,14.74,0Zm37.56-17.4A32.46,32.46,0,0,1,56.72,53.46a.44.44,0,0,1,.32-.15h0a.46.46,0,0,1,.33.14l45.18,45.18a.46.46,0,0,1,.14.34A.44.44,0,0,1,102.55,99.3ZM97.49,58A12.13,12.13,0,0,1,101,66.56a1.38,1.38,0,1,0,2.77,0A14.82,14.82,0,0,0,89,51.75h0a1.38,1.38,0,1,0,0,2.77A12.13,12.13,0,0,1,97.49,58Z"/><path class="cls-2" d="M54,111a6.17,6.17,0,0,1,4.15,1.61l.16.14a4.32,4.32,0,0,1-.27.95H50a4.32,4.32,0,0,1-.26-.95,6.15,6.15,0,0,1,2.16-1.37l.91-.34,1,0H54M89,30.54a1.38,1.38,0,1,0,0,2.77,33.26,33.26,0,0,1,33.26,33.26,1.38,1.38,0,1,0,2.77,0,36,36,0,0,0-36-36Zm0,10.61a1.38,1.38,0,0,0,0,2.77,22.65,22.65,0,0,1,22.65,22.65,1.38,1.38,0,1,0,2.77,0A25.42,25.42,0,0,0,89,41.14ZM57,50.55H57a3.23,3.23,0,0,0-2.31,1.07,35.23,35.23,0,0,0-.24,46.61L49.91,106a11.9,11.9,0,0,0-5.46,4.14l-4.74,6.53H38.08a6.88,6.88,0,0,0-6.16,3.82L30.68,123a1.38,1.38,0,0,0,1.24,2H76.2a1.38,1.38,0,0,0,1.24-2l-1.24-2.48A6.88,6.88,0,0,0,70,116.69H68.41L64,110.6l2.08-3.6a35.25,35.25,0,0,0,38.33-5.64,3.23,3.23,0,0,0,.25-4.56l-.12-.13-22-22,4.06-3.82a4.61,4.61,0,1,0-1.94-2l-4.07,3.84L59.34,51.5a3.26,3.26,0,0,0-2.3-.95Zm23.93,57A32.46,32.46,0,0,1,56.72,53.46a.44.44,0,0,1,.32-.15h0a.46.46,0,0,1,.33.14l45.18,45.18a.46.46,0,0,1,.14.34.44.44,0,0,1-.15.32A32.32,32.32,0,0,1,81,107.53Zm7.78-38.9a1.84,1.84,0,1,1,1.3-.54h0a1.84,1.84,0,0,1-1.3.54ZM53.53,105.29l2.86-5a35.2,35.2,0,0,0,7.21,5.41l-1.53,2.65a11.92,11.92,0,0,0-8-3.11ZM43.13,116.69l3.56-4.9a9.11,9.11,0,0,1,14.74,0l3.56,4.9Zm24.58,2.77H70a4.13,4.13,0,0,1,3.7,2.29l.24.47H34.16l.24-.47a4.13,4.13,0,0,1,3.7-2.29H67.71ZM89,51.75h0a1.38,1.38,0,1,0,0,2.77,12,12,0,0,1,12,12,1.38,1.38,0,1,0,2.77,0A14.82,14.82,0,0,0,89,51.75Zm-34.91,59a1.38,1.38,0,1,0,1.38,1.38,1.38,1.38,0,0,0-1.38-1.38Z"/></g></g></svg>