<?xml version="1.0" standalone="no"?>
<!DOCTYPE svg PUBLIC "-//W3C//DTD SVG 20010904//EN"
 "http://www.w3.org/TR/2001/REC-SVG-20010904/DTD/svg10.dtd">
<svg version="1.0" xmlns="http://www.w3.org/2000/svg"
 width="1146.000000pt" height="2146.000000pt" viewBox="0 0 1146.000000 2146.000000"
 preserveAspectRatio="xMidYMid meet">

<g transform="translate(0.000000,2146.000000) scale(0.100000,-0.100000)"
fill="white" stroke="none">
<path d="M1510 21385 c-259 -36 -529 -141 -737 -288 -120 -85 -290 -252 -384
-376 -165 -220 -277 -497 -315 -781 -21 -158 -21 -18262 0 -18420 51 -384 222
-720 503 -990 220 -212 459 -345 756 -421 200 -51 -8 -49 4397 -49 4405 0
4197 -2 4397 49 297 76 536 209 756 421 281 270 452 606 503 990 21 158 21
18262 0 18420 -51 384 -222 720 -503 990 -220 212 -459 345 -756 421 -201 51
10 49 -4407 48 -3325 -1 -4133 -4 -4210 -14z m8460 -683 c172 -46 343 -144
465 -267 123 -122 219 -290 266 -465 23 -85 23 -89 27 -827 l3 -743 -5001 0
-5001 0 4 743 c3 729 4 743 25 827 27 99 92 242 153 331 148 219 417 384 684
419 33 4 1912 7 4175 6 l4115 -1 85 -23z m760 -9637 l0 -6665 -5000 0 -5000 0
0 6665 0 6665 5000 0 5000 0 0 -6665z m-2 -8412 l-4 -1078 -23 -85 c-48 -176
-143 -343 -266 -465 -124 -125 -297 -223 -471 -267 l-89 -23 -4145 0 -4145 0
-90 23 c-177 47 -346 142 -470 267 -123 122 -218 289 -266 465 l-23 85 -4
1078 -3 1077 5001 0 5001 0 -3 -1077z"/>
<path d="M4282 19711 c-66 -23 -117 -63 -160 -125 -118 -174 -56 -399 136
-493 l57 -28 1415 0 1415 0 57 28 c72 36 134 98 167 167 37 79 37 192 0 271
-36 76 -90 133 -157 166 l-57 28 -1410 2 c-1345 2 -1412 2 -1463 -16z"/>
<path d="M6608 5707 c-135 -57 -210 -168 -210 -313 0 -130 78 -250 199 -307
46 -21 61 -22 298 -22 250 0 250 0 306 26 72 34 134 96 168 168 21 46 26 70
26 136 0 71 -4 89 -33 147 -36 73 -86 123 -161 160 -44 22 -58 23 -291 26
-238 2 -247 2 -302 -21z"/>
<path d="M7952 5711 c-142 -49 -231 -188 -220 -340 9 -122 75 -219 186 -273
l67 -33 245 0 c244 0 245 0 301 26 124 58 189 154 197 288 3 61 0 87 -18 133
-28 75 -96 150 -168 185 l-57 28 -240 3 c-213 2 -246 0 -293 -17z"/>
<path d="M9289 5713 c-144 -48 -243 -206 -225 -357 14 -112 91 -216 196 -265
55 -26 57 -26 305 -26 235 0 253 1 297 22 148 68 232 235 194 384 -30 116
-102 197 -215 239 -46 18 -76 20 -279 19 -177 0 -237 -4 -273 -16z"/>
<path d="M5630 3394 c-14 -2 -52 -9 -85 -15 -328 -56 -625 -301 -747 -616
-144 -369 -58 -788 220 -1070 141 -143 308 -234 515 -279 87 -20 286 -22 376
-5 480 92 821 503 821 989 -1 474 -328 877 -795 978 -70 15 -258 26 -305 18z
m235 -698 c72 -33 126 -84 161 -153 26 -51 29 -68 29 -148 0 -84 -2 -95 -34
-153 -35 -64 -85 -113 -151 -148 -28 -15 -56 -19 -140 -19 -84 0 -112 4 -140
19 -66 35 -116 84 -151 148 -32 58 -34 69 -34 153 0 75 4 98 24 139 82 167
272 237 436 162z"/>
</g>
</svg>
