<?xml version="1.0" standalone="no"?>
<!DOCTYPE svg PUBLIC "-//W3C//DTD SVG 20010904//EN"
 "http://www.w3.org/TR/2001/REC-SVG-20010904/DTD/svg10.dtd">
<svg version="1.0" xmlns="http://www.w3.org/2000/svg"
 width="2133.000000pt" height="2133.000000pt" viewBox="0 0 2133.000000 2133.000000"
 preserveAspectRatio="xMidYMid meet">
<metadata>
Created by potrace 1.16, written by Peter Selinger 2001-2019
</metadata>
<g transform="translate(0.000000,2133.000000) scale(0.100000,-0.100000)"
fill="#fff" stroke="none">
<path d="M4085 21295 c-564 -88 -1029 -517 -1160 -1069 -13 -56 -29 -148 -35
-205 -6 -66 -10 -656 -10 -1652 l0 -1549 -632 0 c-671 0 -729 -3 -911 -50
-688 -178 -1199 -734 -1316 -1432 l-21 -123 3 -6835 2 -6835 23 -100 c58 -248
167 -499 295 -678 269 -374 662 -627 1119 -719 l113 -23 8510 0 8510 0 113 23
c740 150 1290 713 1424 1457 l23 130 0 1420 0 1420 -23 57 c-32 80 -99 150
-180 190 -60 30 -75 33 -157 33 -78 0 -98 -4 -153 -29 -78 -36 -151 -113 -184
-194 l-23 -57 -5 -1430 -6 -1430 -22 -76 c-26 -90 -42 -130 -89 -224 -145
-288 -438 -504 -762 -560 -73 -13 -1142 -15 -8466 -15 -7381 0 -8393 2 -8468
15 -402 70 -739 381 -849 785 l-23 85 0 6795 0 6795 23 82 c109 396 397 680
792 779 73 19 271 19 8530 19 l8455 0 82 -23 c384 -105 663 -381 775 -767 l23
-80 3 -2197 2 -2197 -1537 -3 c-1433 -3 -1544 -5 -1633 -22 -445 -84 -822
-361 -1022 -752 -56 -109 -92 -206 -126 -344 l-26 -105 -4 -1125 c-2 -776 0
-1151 8 -1210 62 -481 350 -890 775 -1100 128 -63 199 -89 335 -123 85 -21 89
-21 1960 -25 1389 -2 1898 0 1964 8 610 81 1106 560 1210 1169 14 83 16 234
16 1221 0 1258 2 1213 -70 1431 -73 221 -175 385 -344 555 -200 199 -446 335
-706 388 l-65 13 -6 2209 c-3 1215 -9 2225 -13 2244 -4 19 -14 71 -22 115 -77
408 -297 780 -619 1044 -229 188 -474 305 -785 373 -86 19 -136 21 -517 25
-233 3 -423 7 -423 9 0 3 34 123 75 267 42 144 82 303 90 352 20 121 19 356
-1 476 -81 475 -406 885 -846 1069 -54 22 -959 288 -2163 635 l-2070 596 -85
-4 c-103 -4 -159 -27 -228 -91 -27 -25 -62 -71 -78 -103 -26 -53 -29 -67 -29
-158 0 -89 3 -106 28 -157 34 -69 100 -138 159 -166 34 -16 2571 -752 2592
-752 2 0 -15 -42 -39 -92 -121 -258 -195 -599 -195 -904 0 -287 68 -610 185
-876 l43 -98 -3709 0 -3709 0 -2 1448 -3 1447 -27 57 c-34 73 -104 142 -176
176 -48 22 -71 27 -147 27 -135 0 -230 -47 -299 -149 -70 -103 -66 -5 -66
-1583 l0 -1423 -595 0 -595 0 -2 1448 -3 1447 -27 57 c-34 73 -98 137 -174
174 -53 26 -69 29 -154 29 -85 0 -101 -3 -154 -29 -76 -37 -135 -96 -172 -172
l-29 -59 -3 -1447 -2 -1448 -775 0 -776 0 4 1583 c2 1459 4 1587 20 1645 66
242 236 425 472 509 l80 28 3135 0 3135 0 80 -28 c188 -67 336 -197 419 -370
73 -152 69 -81 75 -1282 l6 -1080 28 -56 c33 -69 99 -132 175 -167 49 -23 70
-27 147 -27 78 0 98 4 152 29 103 47 178 141 202 254 15 70 15 2015 1 2163
-12 122 -50 284 -91 387 -188 473 -612 812 -1109 887 -81 13 -546 15 -3230 14
-2465 -1 -3152 -4 -3215 -14z m12256 -2834 c228 -66 435 -129 462 -140 170
-73 323 -243 383 -427 26 -79 29 -103 29 -214 l0 -126 -105 -367 -105 -367
-468 0 -468 0 -27 31 c-162 189 -279 436 -329 694 -24 127 -24 368 1 500 24
129 74 281 126 387 41 83 79 148 85 148 2 0 189 -54 416 -119z m3729 -8377
c199 -46 380 -193 470 -379 75 -156 71 -90 68 -1315 l-3 -1095 -27 -73 c-40
-107 -83 -177 -161 -259 -82 -87 -181 -151 -292 -190 l-80 -28 -1810 -3
c-1290 -2 -1829 0 -1875 8 -244 42 -463 235 -548 485 l-27 80 0 1105 0 1105
26 77 c55 161 156 294 288 383 76 50 95 59 201 91 l75 23 1815 0 c1593 1 1823
-1 1880 -15z"/>
<path d="M16813 8762 c-99 -35 -171 -101 -215 -199 -18 -39 -23 -66 -22 -143
0 -84 3 -102 27 -152 36 -73 101 -139 175 -175 l57 -28 360 0 360 0 67 33 c81
40 149 111 177 188 29 75 29 193 0 269 -27 72 -101 153 -176 190 l-58 30 -350
2 c-317 3 -355 1 -402 -15z"/>
<path d="M10211 13817 c-7 -19 -21 -44 -33 -56 -20 -22 -38 -47 -118 -166 -19
-27 -37 -52 -41 -55 -7 -5 -28 -35 -109 -155 -19 -27 -37 -52 -41 -55 -7 -5
-40 -53 -109 -155 -18 -27 -38 -54 -44 -60 -7 -5 -23 -28 -36 -50 -13 -22 -30
-46 -38 -54 -8 -8 -25 -33 -39 -55 -14 -23 -30 -45 -37 -51 -7 -5 -23 -28 -36
-50 -13 -22 -30 -46 -38 -54 -8 -8 -25 -33 -39 -55 -14 -23 -30 -45 -37 -51
-7 -5 -23 -28 -36 -50 -13 -22 -30 -46 -38 -54 -8 -8 -25 -33 -39 -55 -14 -23
-30 -45 -37 -51 -7 -5 -23 -28 -36 -50 -13 -22 -31 -47 -39 -55 -7 -8 -27 -36
-43 -62 -16 -26 -33 -48 -38 -48 -4 0 -13 -13 -19 -28 -6 -15 -23 -41 -38 -57
-14 -17 -39 -51 -55 -77 -16 -27 -33 -48 -38 -48 -4 0 -13 -13 -20 -29 -6 -16
-19 -37 -29 -47 -9 -11 -31 -39 -48 -64 -17 -25 -40 -56 -52 -69 -12 -13 -21
-29 -21 -35 0 -6 -10 -22 -23 -36 -25 -28 -119 -158 -127 -176 -3 -6 -15 -24
-27 -40 -65 -83 -123 -164 -123 -171 0 -5 -10 -20 -22 -33 -27 -30 -68 -87
-68 -94 0 -3 -13 -20 -30 -38 -16 -18 -30 -37 -30 -43 0 -6 -10 -22 -22 -35
-27 -30 -68 -87 -68 -94 0 -3 -13 -20 -30 -38 -16 -18 -30 -37 -30 -43 0 -6
-10 -22 -22 -35 -27 -30 -68 -87 -68 -94 0 -3 -13 -20 -30 -38 -16 -18 -30
-36 -30 -41 0 -5 -20 -35 -45 -67 -25 -32 -45 -63 -45 -68 0 -5 -7 -12 -15
-16 -8 -3 -15 -12 -15 -20 0 -7 -7 -16 -15 -20 -8 -3 -15 -10 -15 -16 0 -7
-19 -37 -43 -68 -24 -31 -46 -65 -50 -74 -3 -10 -11 -18 -17 -18 -5 0 -10 -6
-10 -14 0 -8 -7 -16 -15 -20 -8 -3 -15 -11 -15 -18 0 -8 -12 -27 -27 -44 -33
-37 -50 -61 -63 -91 -5 -13 -14 -23 -20 -23 -5 0 -10 -7 -10 -15 0 -8 -5 -15
-10 -15 -6 0 -14 -8 -17 -17 -8 -20 -78 -121 -119 -170 -15 -18 -32 -41 -38
-52 -28 -48 -99 -151 -106 -151 -3 0 -17 -19 -30 -42 -13 -24 -30 -50 -38 -58
-8 -8 -28 -36 -44 -62 -16 -26 -33 -48 -37 -48 -4 0 -18 -19 -31 -42 -13 -24
-30 -49 -38 -57 -7 -8 -25 -33 -39 -55 -14 -23 -30 -45 -37 -51 -7 -5 -23 -28
-36 -50 -13 -22 -37 -53 -52 -70 -15 -16 -28 -35 -28 -41 0 -6 -11 -22 -24
-36 -12 -14 -34 -43 -47 -64 -13 -22 -36 -52 -51 -69 -15 -16 -28 -35 -28 -41
0 -6 -11 -22 -24 -36 -12 -14 -34 -43 -47 -64 -13 -22 -36 -52 -51 -69 -15
-16 -28 -35 -28 -41 0 -6 -11 -22 -24 -36 -12 -14 -34 -43 -47 -64 -13 -22
-36 -52 -51 -69 -15 -16 -28 -35 -28 -41 0 -6 -11 -22 -24 -36 -12 -14 -34
-43 -47 -64 -13 -22 -29 -45 -37 -53 -8 -8 -25 -32 -38 -53 -27 -42 -78 -112
-121 -167 -15 -18 -33 -45 -41 -60 -7 -14 -21 -35 -31 -46 -10 -11 -32 -41
-49 -68 -17 -26 -36 -53 -42 -60 -23 -28 -81 -109 -103 -144 -14 -21 -34 -49
-46 -62 -11 -13 -23 -32 -26 -42 -4 -11 -11 -19 -16 -19 -5 0 -9 -7 -9 -15 0
-8 -4 -15 -9 -15 -5 0 -21 -19 -34 -42 -14 -24 -37 -56 -51 -72 -14 -16 -28
-37 -31 -47 -4 -11 -11 -19 -16 -19 -5 0 -9 -7 -9 -15 0 -8 -4 -15 -9 -15 -5
0 -21 -19 -34 -42 -14 -24 -37 -56 -51 -72 -14 -16 -28 -37 -31 -47 -4 -11
-11 -19 -16 -19 -5 0 -9 -4 -9 -10 0 -10 -9 -23 -55 -73 -16 -18 -25 -40 -25
-62 l0 -35 1428 -2 1427 -3 -3 -48 c-2 -27 -10 -60 -18 -75 -8 -15 -14 -52
-14 -82 0 -30 -7 -68 -15 -84 -8 -15 -15 -51 -15 -80 -1 -28 -7 -62 -15 -76
-8 -14 -14 -52 -15 -86 0 -37 -6 -68 -15 -80 -9 -11 -15 -43 -15 -79 0 -33 -7
-71 -15 -85 -8 -14 -15 -52 -15 -85 0 -36 -6 -68 -15 -79 -9 -12 -15 -42 -15
-75 0 -31 -7 -69 -15 -85 -8 -15 -15 -52 -15 -81 0 -29 -7 -69 -15 -88 -8 -20
-15 -58 -15 -84 0 -26 -7 -61 -15 -77 -8 -15 -15 -50 -15 -77 0 -28 -7 -66
-15 -86 -8 -19 -15 -58 -15 -85 0 -27 -5 -59 -12 -71 -7 -12 -15 -56 -19 -97
-3 -41 -11 -76 -18 -78 -6 -2 -11 -27 -11 -63 0 -33 -5 -70 -12 -82 -6 -12
-15 -58 -18 -102 -4 -44 -12 -81 -19 -83 -6 -2 -11 -29 -11 -65 -1 -35 -7 -73
-15 -87 -8 -14 -14 -50 -15 -80 0 -30 -7 -68 -15 -84 -8 -15 -15 -51 -15 -80
0 -28 -7 -63 -15 -79 -7 -15 -15 -53 -16 -85 -1 -31 -7 -68 -14 -82 -7 -14
-15 -56 -18 -94 -3 -38 -11 -74 -16 -79 -6 -6 -11 -32 -11 -58 0 -25 -6 -64
-14 -86 -8 -22 -17 -71 -21 -109 -4 -38 -11 -73 -15 -79 -4 -5 -11 -38 -14
-72 -3 -34 -10 -72 -16 -85 -5 -13 -14 -54 -20 -93 -17 -123 -35 -220 -42
-230 -3 -6 -10 -40 -13 -75 -4 -36 -13 -87 -21 -114 -8 -27 -14 -68 -14 -91 0
-22 -4 -45 -10 -51 -5 -5 -14 -43 -20 -84 -14 -112 -30 -201 -41 -235 -5 -16
-12 -59 -16 -95 -3 -36 -12 -74 -19 -85 -8 -11 -14 -34 -14 -52 0 -32 1 -33
41 -33 36 0 41 3 54 32 7 18 22 42 32 53 10 11 30 38 43 60 13 22 37 54 52 70
15 17 28 35 28 40 0 6 10 21 23 35 12 14 33 42 46 63 13 21 37 53 52 70 16 17
29 36 29 42 0 6 10 21 23 35 12 14 33 42 46 63 13 21 37 53 52 70 16 17 29 36
29 42 0 6 11 22 24 36 13 14 31 40 40 57 9 17 24 39 34 49 10 10 32 38 49 63
83 125 98 146 110 153 7 4 13 14 13 22 0 7 3 15 8 17 7 3 32 36 85 116 17 26
37 51 44 55 7 4 13 13 13 18 0 6 19 36 43 67 24 31 53 74 66 95 12 20 27 37
32 37 5 0 9 5 9 10 0 11 34 63 59 89 8 9 27 37 43 63 16 26 34 48 39 48 5 0 9
5 9 10 0 11 34 63 59 89 8 9 27 37 43 63 16 26 34 48 39 48 5 0 9 5 9 10 0 11
34 63 59 89 8 9 27 37 43 63 16 26 34 48 39 48 5 0 9 5 9 10 0 11 34 63 59 89
8 9 27 37 43 63 16 26 34 48 39 48 5 0 9 5 9 10 0 11 34 63 58 89 8 8 25 33
39 55 14 23 30 46 37 51 7 6 23 28 36 50 13 22 30 46 38 54 8 8 25 33 39 55
14 23 30 46 37 51 7 6 23 28 36 50 13 22 30 46 38 54 8 8 25 33 39 55 14 23
30 46 37 51 7 6 23 28 36 50 13 22 30 46 38 54 8 8 25 32 38 53 23 36 81 117
105 146 10 12 70 99 118 171 13 19 29 41 35 47 6 6 18 22 26 34 8 13 29 42 46
65 18 23 37 52 43 63 6 11 17 27 23 34 19 20 58 76 58 83 0 3 13 20 30 38 16
18 30 36 30 40 0 5 20 35 45 67 25 32 45 61 45 65 0 3 13 20 30 38 16 18 30
36 30 40 0 5 20 35 45 67 25 32 45 63 45 68 0 5 13 22 30 38 16 16 30 33 30
37 0 5 20 35 45 67 25 32 45 63 45 68 0 5 13 22 30 38 16 16 30 33 30 37 0 5
20 35 45 67 25 32 45 63 45 68 0 5 13 22 30 38 16 16 30 33 30 37 0 5 20 35
45 67 25 32 45 63 45 68 0 5 13 22 30 38 16 16 30 33 30 37 0 5 20 35 45 67
25 32 45 63 45 68 0 5 13 22 30 38 16 16 30 33 30 37 0 5 20 35 45 67 25 32
45 63 45 68 0 5 13 22 30 38 16 16 30 33 30 37 0 5 20 35 45 67 25 32 45 63
45 68 0 5 13 22 30 38 16 16 30 33 30 37 0 5 20 35 45 67 25 32 45 62 45 67 0
5 13 22 29 39 15 16 31 39 35 52 4 12 12 22 17 22 5 0 9 7 9 15 0 8 4 15 9 15
5 0 26 27 47 60 21 33 41 60 45 60 4 0 12 14 19 30 7 17 16 30 21 30 5 0 9 5
9 10 0 6 7 18 16 28 8 9 37 49 64 87 27 39 53 75 59 81 9 11 78 110 135 194
16 25 33 47 37 50 8 6 76 103 120 173 17 26 34 47 38 47 3 0 15 16 25 35 11
19 23 35 28 35 4 0 8 18 8 40 l0 40 -1424 0 c-869 0 -1427 4 -1431 9 -3 5 -1
12 5 16 5 3 10 25 10 48 1 23 7 53 15 67 8 14 14 48 15 76 0 28 7 68 15 87 8
20 15 58 15 86 0 27 7 62 15 77 8 16 15 54 15 84 1 30 7 66 15 80 8 14 14 50
15 81 0 31 7 70 15 85 8 16 15 52 15 79 0 28 7 63 15 79 8 15 15 54 15 85 0
31 5 62 11 68 6 6 14 42 16 80 3 37 12 80 19 95 8 15 14 51 14 80 1 29 7 64
15 78 8 14 14 50 15 81 0 31 7 70 15 85 8 16 15 54 15 84 1 30 7 66 15 80 8
14 14 50 15 81 0 31 7 70 15 85 8 16 15 54 15 85 0 33 6 63 15 75 9 11 15 43
15 79 0 33 7 71 15 85 8 14 15 52 15 85 0 36 6 68 15 79 9 12 15 42 15 75 0
31 7 69 15 85 9 16 15 55 15 91 0 38 4 65 11 67 7 2 15 40 19 87 4 45 12 87
19 94 6 6 11 37 11 68 0 31 7 70 15 85 8 16 15 54 15 84 1 30 7 66 15 80 8 14
15 50 15 80 0 30 7 66 15 80 8 14 15 52 15 85 0 36 6 68 15 79 9 12 15 42 15
75 0 31 7 69 15 85 9 16 15 55 15 91 0 38 4 65 11 67 7 2 15 40 19 87 4 45 12
87 19 94 6 6 11 37 11 68 0 31 7 70 15 85 8 16 15 54 15 84 1 30 7 66 15 80 8
14 15 50 15 80 0 30 7 66 15 80 8 14 15 52 15 85 0 36 6 68 15 79 8 11 15 37
15 58 0 38 0 38 -39 38 -36 0 -40 -3 -50 -33z"/>
</g>
</svg>
