<?xml version="1.0" standalone="no"?>
<!DOCTYPE svg PUBLIC "-//W3C//DTD SVG 20010904//EN"
 "http://www.w3.org/TR/2001/REC-SVG-20010904/DTD/svg10.dtd">
<svg version="1.0" xmlns="http://www.w3.org/2000/svg"
 width="2133.000000pt" height="2133.000000pt" viewBox="0 0 2133.000000 2133.000000"
 preserveAspectRatio="xMidYMid meet">

<g transform="translate(0.000000,2133.000000) scale(0.100000,-0.100000)"
fill="white" stroke="none">
<path d="M4160 21303 c-143 -15 -342 -74 -474 -139 -147 -73 -253 -149 -377
-273 -207 -207 -319 -411 -397 -721 -14 -59 -16 -229 -19 -1707 l-3 -1642
-668 -3 c-650 -4 -670 -4 -776 -27 -375 -78 -677 -242 -937 -508 -256 -261
-407 -549 -481 -913 l-23 -115 0 -6835 0 -6835 23 -113 c49 -243 163 -509 299
-702 86 -122 300 -336 423 -422 234 -166 514 -274 809 -313 160 -22 16852 -22
17012 0 526 70 988 358 1271 795 123 189 214 413 260 640 l23 115 0 1455 0
1455 -22 48 c-33 71 -113 150 -186 183 -88 40 -196 40 -284 0 -73 -33 -153
-112 -186 -183 l-22 -48 -6 -1420 c-5 -1530 -3 -1448 -55 -1610 -22 -66 -85
-193 -132 -264 -54 -82 -182 -212 -268 -271 -96 -66 -236 -132 -344 -162 l-85
-23 -8470 0 -8470 0 -85 23 c-102 28 -244 93 -330 152 -252 171 -425 459 -459
763 -15 135 -15 13339 0 13474 41 368 270 689 606 849 101 47 225 81 344 94
142 14 16646 14 16788 0 187 -20 380 -93 522 -200 96 -72 226 -214 283 -308
54 -91 105 -218 132 -332 17 -71 18 -198 21 -2257 l3 -2183 -1572 -3 c-1568
-3 -1573 -3 -1659 -24 -384 -95 -680 -298 -885 -604 -106 -159 -171 -314 -216
-519 l-23 -105 0 -1140 c0 -1063 1 -1146 18 -1230 83 -407 302 -734 637 -950
142 -92 297 -156 481 -197 l104 -23 1890 0 c1761 0 1896 1 1976 17 273 56 520
184 715 371 209 199 344 435 412 719 l27 113 0 1170 c0 1093 -1 1176 -18 1255
-60 280 -184 515 -379 716 -196 202 -409 325 -683 394 l-110 28 -5 2234 -5
2233 -27 121 c-84 373 -243 660 -509 920 -255 248 -546 401 -905 475 -100 21
-141 23 -520 27 l-411 4 79 276 c98 344 112 426 104 632 -13 375 -147 682
-415 951 -168 168 -339 275 -546 343 -247 81 -4119 1188 -4171 1193 -47 4 -79
0 -135 -17 -64 -19 -81 -29 -140 -89 -60 -59 -70 -76 -89 -140 -27 -86 -24
-155 10 -244 26 -70 104 -153 170 -183 25 -12 614 -184 1310 -384 696 -200
1268 -366 1273 -370 4 -3 -10 -44 -32 -91 -84 -180 -153 -422 -182 -639 -18
-135 -15 -430 6 -565 32 -211 98 -427 202 -662 4 -10 -741 -13 -3706 -13
l-3711 0 -2 1443 -3 1442 -33 67 c-76 154 -243 234 -403 194 -116 -30 -212
-114 -256 -226 -17 -42 -18 -131 -21 -1482 l-2 -1438 -595 0 -595 0 -2 1438
-3 1437 -24 60 c-32 80 -117 164 -198 196 -80 31 -186 31 -267 -1 -79 -30
-165 -116 -197 -196 l-24 -59 -3 -1437 -2 -1438 -775 0 -775 0 2 1593 c4 1787
-3 1629 79 1795 77 152 220 279 391 345 l83 32 3155 0 3155 0 83 -32 c171 -66
314 -193 391 -345 80 -162 75 -72 81 -1288 l5 -1085 22 -48 c34 -72 113 -150
186 -183 51 -23 77 -28 142 -28 70 -1 89 3 147 31 79 37 142 98 177 173 l26
55 0 1135 0 1135 -32 116 c-78 289 -201 499 -406 696 -192 183 -400 293 -692
365 l-90 22 -3155 2 c-1735 0 -3171 -1 -3190 -3z m12635 -2974 c283 -120 463
-428 426 -729 -8 -63 -93 -377 -207 -762 -5 -17 -37 -18 -479 -18 l-474 0 -54
68 c-141 174 -236 377 -289 613 -19 89 -23 132 -23 294 0 205 15 303 72 473
25 74 94 224 134 288 l19 31 412 -118 c227 -66 436 -129 463 -140z m3290
-8242 c122 -35 224 -95 316 -187 97 -96 149 -180 189 -305 l25 -80 3 -1040 c2
-679 -1 -1067 -7 -1118 -6 -43 -22 -110 -35 -148 -79 -226 -283 -406 -521
-460 -49 -12 -380 -14 -1865 -14 l-1805 0 -80 23 c-208 60 -374 199 -460 387
-67 145 -65 101 -65 1277 0 1184 -2 1135 69 1282 105 216 300 360 536 396 28
4 858 7 1845 6 1675 -1 1799 -2 1855 -19z"/>
<path d="M16839 8766 c-293 -79 -359 -474 -106 -641 89 -59 134 -65 462 -65
314 0 369 7 447 53 58 34 124 106 151 165 17 37 21 66 22 142 0 84 -3 102 -27
150 -49 99 -132 169 -233 195 -77 20 -643 21 -716 1z"/>
<path d="M10215 13773 c-23 -36 -68 -100 -577 -813 -233 -327 -615 -863 -848
-1190 -675 -948 -854 -1198 -930 -1305 -40 -55 -267 -374 -506 -710 -239 -335
-457 -641 -485 -680 -54 -75 -349 -489 -779 -1093 -146 -205 -299 -420 -340
-477 -41 -57 -115 -161 -164 -230 -49 -69 -98 -132 -109 -140 -12 -8 -17 -18
-13 -22 4 -5 654 -10 1444 -13 949 -3 1437 -8 1436 -15 0 -5 -3 -28 -8 -50 -4
-22 -16 -89 -27 -150 -11 -60 -24 -130 -29 -155 -5 -25 -16 -83 -24 -130 -40
-224 -58 -319 -66 -360 -5 -25 -18 -97 -30 -160 -11 -63 -25 -137 -30 -165 -5
-27 -19 -102 -30 -165 -12 -63 -25 -135 -30 -160 -8 -41 -26 -136 -66 -360 -8
-47 -19 -105 -24 -130 -5 -25 -18 -97 -30 -160 -22 -125 -44 -243 -66 -360
-19 -98 -29 -151 -54 -290 -23 -127 -45 -249 -65 -355 -8 -38 -21 -110 -30
-160 -41 -227 -68 -371 -90 -490 -8 -38 -21 -110 -30 -160 -17 -98 -39 -221
-60 -330 -8 -38 -21 -110 -30 -160 -9 -49 -23 -121 -30 -160 -25 -133 -26
-135 -10 -135 7 0 204 267 436 593 232 325 477 669 544 762 67 94 323 454 570
800 247 347 478 671 514 721 36 50 101 140 143 200 302 423 788 1106 848 1189
39 55 158 222 264 370 740 1039 968 1359 1179 1655 131 184 249 347 262 362
20 22 21 27 9 32 -9 3 -654 6 -1434 6 -1016 0 -1421 3 -1426 11 -3 6 -1 39 5
72 7 34 18 96 26 137 8 41 22 116 31 165 9 50 22 122 29 160 7 39 21 111 30
160 8 50 22 124 30 165 8 41 22 116 30 165 9 50 23 122 30 160 7 39 20 111 29
160 9 50 23 124 31 165 8 41 22 116 30 165 9 50 23 122 30 160 7 39 20 111 29
160 9 50 23 124 31 165 8 41 21 116 30 165 20 108 41 224 60 325 8 41 21 116
30 165 9 50 22 122 30 160 7 39 20 111 29 160 9 50 23 124 31 165 8 41 21 116
30 165 9 50 22 122 30 160 12 65 24 129 60 325 25 141 46 255 60 325 7 39 21
113 30 165 10 52 26 139 36 192 11 53 19 104 19 112 0 25 -26 18 -45 -11z"/>
</g>
</svg>
