<?xml version="1.0" standalone="no"?>
<!DOCTYPE svg PUBLIC "-//W3C//DTD SVG 20010904//EN"
 "http://www.w3.org/TR/2001/REC-SVG-20010904/DTD/svg10.dtd">
<svg version="1.0" xmlns="http://www.w3.org/2000/svg"
 width="2133.000000pt" height="2133.000000pt" viewBox="0 0 2133.000000 2133.000000"
 preserveAspectRatio="xMidYMid meet">

<g transform="translate(0.000000,2133.000000) scale(0.100000,-0.100000)"
fill="white" stroke="none">
<path d="M10305 21323 c-626 -33 -1359 -197 -1945 -436 -1157 -471 -2131
-1264 -2826 -2299 -320 -477 -590 -1040 -759 -1585 -516 -1660 -313 -3440 563
-4943 432 -741 1075 -1442 1760 -1920 34 -24 59 -47 55 -51 -5 -4 -65 -28
-135 -53 -1035 -367 -2101 -965 -3008 -1689 -328 -263 -626 -533 -970 -883
-1292 -1313 -2215 -2928 -2685 -4702 -214 -806 -333 -1643 -352 -2469 l-6
-283 836 0 837 0 0 143 c0 265 29 680 71 1007 276 2165 1349 4172 3004 5619
1317 1151 2934 1894 4650 2135 402 57 644 74 1165 86 446 10 602 19 860 51
2036 253 3815 1509 4745 3349 376 745 587 1520 646 2374 15 220 6 788 -16 991
-86 805 -309 1559 -659 2230 -387 740 -903 1380 -1546 1916 -994 830 -2221
1319 -3540 1409 -132 9 -597 11 -745 3z m691 -1673 c1083 -85 2080 -545 2846
-1314 568 -569 975 -1285 1173 -2061 89 -350 124 -620 132 -1006 6 -304 -3
-475 -38 -728 -175 -1260 -897 -2407 -1959 -3113 -238 -158 -596 -346 -845
-443 -864 -339 -1811 -403 -2715 -183 -582 141 -1193 434 -1660 797 -458 356
-827 768 -1120 1251 -97 159 -269 506 -334 672 -387 990 -412 2100 -71 3098
274 798 781 1520 1440 2049 706 567 1558 907 2455 980 152 12 546 13 696 1z"/>
<path d="M16822 9337 l-592 -592 930 -930 930 -930 -887 -6 c-928 -6 -930 -6
-1253 -54 -1361 -202 -2615 -954 -3446 -2066 -615 -825 -972 -1788 -1044
-2819 -5 -80 -10 -543 -10 -1037 l0 -893 835 0 835 0 0 873 c0 500 5 923 10
992 49 582 218 1104 516 1597 515 852 1391 1470 2362 1667 323 66 302 65 1277
68 l890 4 -973 -973 -972 -973 590 -590 590 -590 1963 1963 1962 1962 -1960
1960 -1960 1960 -593 -593z"/>
</g>
</svg>
