<?xml version="1.0" standalone="no"?>
<!DOCTYPE svg PUBLIC "-//W3C//DTD SVG 20010904//EN"
 "http://www.w3.org/TR/2001/REC-SVG-20010904/DTD/svg10.dtd">
<svg version="1.0" xmlns="http://www.w3.org/2000/svg"
 width="2133.000000pt" height="2133.000000pt" viewBox="0 0 2133.000000 2133.000000"
 preserveAspectRatio="xMidYMid meet">
<metadata>
Created by potrace 1.16, written by Peter Selinger 2001-2019
</metadata>
<g transform="translate(0.000000,2133.000000) scale(0.100000,-0.100000)"
fill="#fff" stroke="none">
<path d="M10150 21315 c-1283 -108 -2463 -595 -3460 -1429 -174 -145 -469
-432 -629 -611 -1218 -1362 -1766 -3182 -1505 -4994 231 -1607 1099 -3067
2404 -4045 96 -72 175 -136 175 -141 1 -6 -74 -37 -165 -71 -1127 -416 -2189
-1028 -3112 -1795 -442 -368 -882 -798 -1252 -1223 -1286 -1479 -2128 -3250
-2455 -5166 -96 -558 -151 -1155 -151 -1632 l0 -198 833 0 834 0 7 228 c58
1946 703 3752 1883 5273 1702 2193 4324 3486 7073 3489 682 1 1328 102 1945
305 1876 616 3341 2086 3953 3965 294 902 372 1891 226 2840 -97 629 -276
1198 -559 1775 -514 1048 -1342 1953 -2340 2557 -847 513 -1749 799 -2759 878
-177 14 -757 10 -946 -5z m800 -1665 c605 -42 1173 -196 1704 -462 200 -100
276 -144 486 -284 542 -359 982 -812 1336 -1374 165 -263 360 -682 459 -990
299 -930 285 -1944 -41 -2865 -502 -1415 -1696 -2502 -3149 -2864 -345 -87
-606 -120 -986 -128 -302 -6 -476 3 -720 37 -851 119 -1654 484 -2315 1053
-157 135 -432 420 -557 577 -584 729 -918 1575 -988 2500 -14 194 -6 625 15
810 135 1149 679 2172 1551 2920 886 759 2056 1150 3205 1070z"/>
<path d="M16815 9340 l-590 -590 929 -929 929 -929 -834 -5 c-843 -5 -909 -7
-1219 -48 -1243 -161 -2417 -790 -3263 -1749 -697 -790 -1148 -1787 -1277
-2820 -36 -291 -40 -412 -40 -1342 l0 -918 834 0 835 0 4 928 c4 1017 4 1022
68 1352 284 1452 1447 2598 2909 2864 266 48 279 49 1195 53 l870 4 -967 -968
c-533 -532 -968 -973 -968 -978 0 -6 266 -276 590 -600 l590 -590 1960 1960
c1078 1078 1960 1964 1960 1970 0 10 -3910 3925 -3920 3925 -3 0 -271 -266
-595 -590z"/>
</g>
</svg>
