<?xml version="1.0" standalone="no"?>
<!DOCTYPE svg PUBLIC "-//W3C//DTD SVG 20010904//EN"
 "http://www.w3.org/TR/2001/REC-SVG-20010904/DTD/svg10.dtd">
<svg version="1.0" xmlns="http://www.w3.org/2000/svg"
 width="1675.000000pt" height="1675.000000pt" viewBox="0 0 1675.000000 1675.000000"
 preserveAspectRatio="xMidYMid meet">

<g transform="translate(0.000000,1675.000000) scale(0.100000,-0.100000)"
fill="black" stroke="none">
<path d="M3293 16735 c-105 -32 -195 -114 -235 -214 l-23 -56 0 -880 0 -880
24 -60 c17 -42 42 -78 85 -121 70 -69 128 -101 212 -114 35 -6 478 -10 1089
-10 1051 0 1208 -4 1540 -41 1062 -117 1812 -483 2214 -1082 49 -73 121 -199
121 -210 0 -4 -1131 -8 -2512 -9 l-2513 -3 -57 -28 c-72 -35 -149 -119 -180
-195 l-23 -57 0 -700 0 -700 23 -57 c31 -76 108 -160 180 -195 l57 -28 2598
-3 c1739 -1 2597 -5 2597 -12 0 -6 -18 -64 -40 -131 -152 -454 -421 -824 -811
-1114 -511 -381 -1216 -620 -2074 -704 -301 -30 -425 -34 -1310 -40 l-940 -6
-58 -28 c-80 -40 -151 -112 -190 -194 l-32 -68 0 -845 0 -845 33 -65 c23 -47
71 -106 173 -215 1362 -1448 3220 -3575 5467 -6258 216 -258 406 -480 422
-493 15 -14 50 -34 77 -47 l48 -22 1249 -3 c1379 -3 1303 -6 1402 60 98 66
183 241 171 353 -11 109 24 62 -866 1145 -1749 2126 -3262 3888 -4406 5130
-145 157 -263 289 -264 294 -1 6 84 22 188 37 1210 174 2197 572 2981 1204
502 405 909 905 1186 1456 199 397 351 873 438 1371 l7 38 1057 2 1057 3 57
28 c72 35 149 119 180 195 l23 57 0 700 0 700 -23 57 c-31 76 -105 156 -179
193 l-58 30 -1075 3 -1075 3 -47 192 c-128 523 -334 984 -620 1392 l-85 120
1426 5 1426 5 56 23 c99 40 179 126 213 228 15 46 16 119 14 755 -3 699 -3
704 -25 751 -46 99 -130 173 -232 202 -49 14 -545 16 -5075 15 -4124 0 -5029
-3 -5063 -14z"/>
</g>
</svg>
