<svg xmlns="http://www.w3.org/2000/svg" viewBox="0 0 154.02 154.02"><defs><style>.cls-1{fill:#f7f5f5;}.cls-2{fill:#918e8e;}.cls-3{fill:#fff;}</style></defs><title>smartphoneicon</title><g id="Layer_2" data-name="Layer 2"><g id="Layer_1-2" data-name="Layer 1"><path class="cls-1" d="M77,152a75,75,0,1,1,75-75A75.1,75.1,0,0,1,77,152Z"/><path class="cls-2" d="M77,4A73,73,0,1,1,4,77,73.09,73.09,0,0,1,77,4m0-4a77,77,0,1,0,77,77A77,77,0,0,0,77,0Z"/><g id="layer1"><g id="g4305"><g id="g4345"><g id="text2994"><g id="g3830"><g id="g3838"><g id="g3785"><g id="rect3010"><path class="cls-3" d="M82.08,125.15a6.4,6.4,0,0,0,.82-7.23H99.14v3a4.2,4.2,0,0,1-4.2,4.2Zm-22.52,0a4.2,4.2,0,0,1-4.21-4.21v-3H71.6a6.4,6.4,0,0,0,.82,7.23ZM83.48,35.54a4,4,0,0,0,0-6H94.94a4.2,4.2,0,0,1,4.2,4.2v1.85Zm-28.12,0V33.69a4.2,4.2,0,0,1,4.21-4.2H70.94a4,4,0,0,0,0,6Z"/><path class="cls-2" d="M94.94,32.36h0a1.44,1.44,0,0,1,.86.31H87.72q0-.13,0-.25v-.06h7.21m-28.23,0c0,.1,0,.21,0,.31h-8a1.44,1.44,0,0,1,.86-.31h7.14m29.56,88.43v.15a1.33,1.33,0,0,1-1.33,1.33h-8.5a9.32,9.32,0,0,0,.1-1.33c0-.05,0-.1,0-.15h9.74m-28.3,0c0,.05,0,.1,0,.15a9.32,9.32,0,0,0,.1,1.33h-8.5a1.33,1.33,0,0,1-1.33-1.33v-.15H68m27-94.17H59.57a7.07,7.07,0,0,0-7.07,7.07v87.25A7.07,7.07,0,0,0,59.57,128H94.94a7.07,7.07,0,0,0,7.07-7.07V33.69a7.07,7.07,0,0,0-7.07-7.07ZM73.6,31.34h7.21a1.18,1.18,0,0,1,0,2.36H73.63a1.18,1.18,0,0,1-.08-2.36h.05ZM54.85,115.05V38.41H99.66v76.64Zm22.4,9.43a3.54,3.54,0,1,1,3.54-3.54,3.54,3.54,0,0,1-3.54,3.54Z"/></g></g></g></g></g></g></g></g></g></g></svg>