<?xml version="1.0" standalone="no"?>
<!DOCTYPE svg PUBLIC "-//W3C//DTD SVG 20010904//EN"
 "http://www.w3.org/TR/2001/REC-SVG-20010904/DTD/svg10.dtd">
<svg version="1.0" xmlns="http://www.w3.org/2000/svg"
 width="860.000000pt" height="790.000000pt" viewBox="0 0 860.000000 790.000000"
 preserveAspectRatio="xMidYMid meet">

<g transform="translate(0.000000,790.000000) scale(0.100000,-0.100000)"
fill="white" stroke="none">
<path d="M5730 7469 c-48 -19 -88 -54 -303 -268 l-247 -245 -158 156 c-184
183 -211 200 -332 206 -70 3 -96 0 -145 -18 -58 -22 -112 -75 -2118 -2079
-1739 -1738 -2062 -2065 -2085 -2111 -23 -48 -27 -67 -27 -145 0 -148 -5 -142
432 -576 208 -207 394 -386 413 -398 45 -27 113 -28 165 -1 71 36 144 53 203
46 129 -15 236 -104 273 -228 26 -85 20 -149 -22 -238 -32 -68 -38 -138 -15
-179 7 -12 182 -196 390 -407 339 -345 384 -386 444 -416 59 -29 76 -33 147
-33 71 0 89 4 147 33 58 28 97 63 298 269 l231 236 157 -156 c190 -188 230
-212 357 -212 159 0 -46 -192 2266 2122 2297 2299 2094 2082 2094 2238 0 143
1 141 -441 578 -227 225 -401 389 -422 399 -53 25 -84 22 -165 -14 -63 -29
-83 -33 -157 -33 -73 0 -92 4 -137 27 -163 86 -224 266 -145 432 33 71 40 123
21 173 -5 15 -184 203 -397 416 -280 281 -401 396 -437 415 -71 37 -205 42
-285 11z m205 -381 c32 -35 175 -181 318 -325 l259 -261 -16 -71 c-20 -88 -21
-239 -1 -316 27 -107 72 -184 154 -265 124 -123 245 -173 421 -172 52 0 126 7
164 16 l68 16 257 -249 c141 -137 289 -283 329 -323 l72 -74 -2012 -2012
-2013 -2012 -135 135 -135 135 1420 1420 c781 781 1424 1420 1429 1420 5 0 30
-20 56 -44 58 -54 114 -67 176 -41 129 54 152 199 46 299 l-31 29 142 149
c179 187 202 227 202 347 0 151 4 146 -441 585 -226 223 -401 388 -422 398
-53 25 -84 22 -165 -14 -63 -29 -83 -33 -157 -33 -73 0 -92 4 -135 27 -165 87
-225 263 -147 435 33 74 39 122 21 169 -5 16 -60 79 -122 141 l-111 113 34 38
c94 102 396 402 406 402 6 0 37 -28 69 -62z m-1088 -270 c88 -90 168 -177 177
-194 17 -34 70 -84 90 -84 7 0 56 -47 110 -105 l98 -105 -16 -70 c-20 -88 -21
-238 -1 -315 27 -107 72 -184 154 -265 124 -123 245 -173 421 -172 53 0 126 7
165 16 l69 17 325 -325 324 -324 -21 -28 c-38 -54 -3375 -3369 -3411 -3389
-20 -11 -45 -36 -56 -55 -23 -39 -514 -540 -530 -540 -5 0 -153 144 -329 319
l-319 319 18 88 c34 170 9 334 -70 470 -67 116 -219 226 -356 259 -85 20 -220
19 -314 -2 l-77 -16 -324 324 -324 324 1583 1583 1583 1583 72 -27 71 -26 66
46 65 47 0 75 c0 53 -5 82 -17 100 l-16 26 304 304 c167 167 308 304 314 304
6 0 83 -73 172 -162z"/>
<path d="M4213 6016 l-62 -41 -3 -80 c-3 -72 -1 -82 23 -115 60 -81 122 -129
198 -155 l73 -24 58 39 c31 21 60 46 64 55 3 9 6 48 6 86 l0 69 -76 79 c-68
72 -83 82 -147 104 l-72 24 -62 -41z"/>
<path d="M4688 5529 c-46 -32 -58 -45 -58 -67 0 -15 -3 -50 -6 -77 l-6 -51 76
-80 c68 -73 83 -84 150 -108 42 -16 81 -24 88 -20 7 4 37 25 66 46 l52 39 0
80 0 81 -75 77 c-66 68 -82 79 -143 99 -38 12 -73 22 -78 21 -5 0 -35 -18 -66
-40z"/>
<path d="M5167 5049 l-57 -41 0 -84 0 -84 71 -74 c64 -68 77 -77 146 -100 42
-14 81 -23 87 -19 6 4 35 24 64 45 l52 39 0 79 0 80 -76 79 c-64 68 -84 83
-137 100 -33 12 -68 21 -76 21 -9 0 -42 -18 -74 -41z"/>
<path d="M5652 4570 l-62 -40 0 -85 0 -85 74 -78 c68 -70 81 -80 146 -101 l72
-23 64 44 64 43 0 80 c0 93 -5 102 -95 186 -45 42 -76 61 -124 78 -36 11 -68
21 -71 21 -4 0 -35 -18 -68 -40z"/>
</g>
</svg>
