<?xml version="1.0" standalone="no"?>
<!DOCTYPE svg PUBLIC "-//W3C//DTD SVG 20010904//EN"
 "http://www.w3.org/TR/2001/REC-SVG-20010904/DTD/svg10.dtd">
<svg version="1.0" xmlns="http://www.w3.org/2000/svg"
 width="512.000000pt" height="512.000000pt" viewBox="0 0 512.000000 512.000000"
 preserveAspectRatio="xMidYMid meet">

<g transform="translate(0.000000,512.000000) scale(0.100000,-0.100000)"
fill="#000000" stroke="none">
<path d="M2420 4689 c-240 -31 -470 -148 -642 -327 -215 -224 -318 -495 -305
-802 22 -507 388 -930 886 -1024 104 -20 283 -21 392 -1 268 47 514 198 679
417 277 367 292 871 38 1258 -58 89 -194 228 -281 288 -228 157 -502 225 -767
191z"/>
<path d="M1804 2248 c-180 -157 -314 -288 -402 -393 -271 -323 -408 -693 -429
-1157 l-6 -138 1593 0 1593 0 -6 133 c-20 433 -141 788 -375 1097 -99 130
-314 340 -574 558 -15 13 -26 10 -90 -21 -161 -77 -351 -118 -548 -118 -200 1
-357 33 -533 112 -48 21 -89 39 -91 39 -1 0 -61 -50 -132 -112z"/>
</g>
</svg>
